<svg xmlns="http://www.w3.org/2000/svg" version="1.1" viewBox="-5.0 -10.0 110.0 135.0">
 <path d="m20.184 64.277c-7.9062-3.3086-12.27-8.2148-14.145-13.305-4.5117-12.234 5.3359-25.75 17.238-24.426 3.1094-20.223 26.879-26.77 40.789-17.402 5.168 3.4766 9.0508 9.1211 9.9922 17.094 10.238-0.74609 16.691 4.0703 19.469 10.453 4.2578 9.7812-0.23438 23.684-13.73 28.027v13.887c0 1.8164 0.76172 3.2461 1.1211 4.5117 0.30078 1.0781 0.39844 2.082 0.17188 3.0547-0.23828 1.0234-0.8125 2.0547-2.082 3.0625-2 1.5859-5.2031 2.8984-9.1641 3.8477-5.543 1.3242-12.633 1.9883-19.738 1.9844-12.09-0.007812-24.184-2.0703-29.098-5.8047-1.3125-1-1.9023-2.0312-2.1484-3.0508-0.23828-0.97656-0.13672-1.9883 0.17578-3.0742 0.36328-1.2656 1.1484-2.6992 1.1484-4.5312zm2.7539-33.578c-9.1172-1.1602-16.445 9.4531-12.988 18.832 1.5938 4.332 5.4805 8.3594 12.344 11.105 0.90234-0.32031 1.7969-0.62891 2.6953-0.91797-4.1719-3.2891-6.9922-7.6289-8.0273-11.148-0.32422-1.1016 0.30469-2.2617 1.4102-2.5859 1.1016-0.32422 2.2617 0.30859 2.5859 1.4102 1.043 3.5508 4.375 8.0742 9.1992 10.793 0.80078-0.21484 1.6016-0.41406 2.3984-0.60156-2.207-2.2109-3.7344-4.5312-5.8906-8.6328-0.53906-1.0156-0.14844-2.2773 0.87109-2.8125 1.0156-0.53516 2.2773-0.14453 2.8125 0.87109 2.5195 4.7812 4.0391 6.8398 7.2734 9.5391 0.73047-0.125 1.4609-0.24219 2.1875-0.34766-3.5117-5.5781-5-11.602-4.9648-17.965 0.003906-1.1523 0.94531-2.082 2.0938-2.0742 1.1523 0.007813 2.0781 0.94531 2.0703 2.0938-0.03125 6.2148 1.582 12.066 5.4727 17.414 1.1406-0.09375 2.2773-0.16406 3.4062-0.20312v-13.34c0-1.1484 0.93359-2.082 2.0859-2.082 1.1484 0 2.082 0.93359 2.082 2.082v13.301c0.98437 0.023437 1.9688 0.0625 2.9492 0.125 3.6016-5.3828 5.1875-11.188 5.2305-17.324 0.011719-1.1484 0.95312-2.0742 2.1016-2.0664 1.1484 0.007813 2.0742 0.94922 2.0664 2.0977-0.046875 6.2422-1.5078 12.18-4.7617 17.738 0.99609 0.12891 1.9922 0.28125 2.9805 0.45312 3.4609-2.8203 5.3047-5.5352 6.625-10.148 0.31641-1.1055 1.4688-1.7461 2.5742-1.4297 1.1055 0.31641 1.7461 1.4688 1.4336 2.5742-1.2578 4.3906-2.9023 7.3516-5.5977 10.078 0.77344 0.19531 1.5391 0.40234 2.3086 0.625 4.3359-2.75 7.1758-6.3672 8.6016-10.805 0.35156-1.0977 1.5273-1.6992 2.6211-1.3477s1.6953 1.5273 1.3438 2.6211c-1.4062 4.3828-3.9297 8.1172-7.668 11.145 1.0039 0.37109 2.0039 0.76562 3.0039 1.1836 11.316-3.2617 15.324-14.59 11.84-22.594-2.1875-5.0234-7.375-8.5469-15.43-7.9531-0.011719 1.207-0.085938 2.457-0.22266 3.7539-0.12109 1.1406-1.1484 1.9688-2.293 1.8477s-1.9727-1.1484-1.8516-2.2891c1.0977-10.309-2.5078-17.305-8.168-21.113-13.234-8.9102-36.969-0.64062-34.445 21.883 0.12891 1.1406-0.69531 2.1758-1.8359 2.3008-1.1445 0.12891-2.1758-0.69531-2.3047-1.8359-0.16406-1.4688-0.23438-2.8828-0.21875-4.25zm1.4141 33.633v14.273c0 1.9102-0.57422 3.5078-1.0625 4.9102-0.22266 0.64453-0.52734 1.1914-0.37891 1.7344 0.070313 0.25 0.29297 0.44922 0.61719 0.69531 1.7031 1.293 4.4219 2.2852 7.7227 3.0625 5.3242 1.2617 12.098 1.8867 18.855 1.8906 6.7578 0.007812 13.5-0.60938 18.77-1.8711 3.2461-0.77344 5.9062-1.7578 7.543-3.0586 0.32031-0.25391 0.53906-0.46484 0.60938-0.72266 0.14844-0.55859-0.14453-1.1211-0.36719-1.7773-0.47266-1.3945-1.0312-2.9766-1.0312-4.8633v-14.07c-15.941-6.5195-33.031-6.5938-51.277-0.20312zm5.9883 7.2305c-1.1133 0.29297-2.25-0.375-2.543-1.4844-0.29297-1.1133 0.37109-2.2539 1.4844-2.5469 13.844-3.6406 27.648-3.5938 41.414 0 1.1133 0.28906 1.7812 1.4297 1.4883 2.543-0.28906 1.1133-1.4297 1.7773-2.5391 1.4883-13.062-3.4141-26.164-3.457-39.305 0z" fill-rule="evenodd"/>
<text x="0.0" y="117.5" font-size="5.0" font-weight="bold" font-family="Arbeit Regular, Helvetica, Arial-Unicode, Arial, Sans-serif" fill="#000000">Created by Jordy Madue&#241;o</text><text x="0.0" y="122.5" font-size="5.0" font-weight="bold" font-family="Arbeit Regular, Helvetica, Arial-Unicode, Arial, Sans-serif" fill="#000000">from Noun Project</text></svg>